
<svg xmlns="http://www.w3.org/2000/svg" viewBox="0 0 151.95 95.94"><defs><style>.cls-1{fill:#c02425;}.cls-2{fill:#f79d00;}.cls-3{fill:none;stroke:#01002a;stroke-linecap:round;stroke-linejoin:round;stroke-width:2.66px;}</style></defs><g id="Layer_2" data-name="Layer 2"><g id="OBJECTS"><polygon class="cls-1" points="88.86 0 61.7 64.83 83.69 64.83 110.85 0 88.86 0"/><polygon class="cls-2" points="55.77 0 15.97 94.61 37.96 94.61 77.76 0 55.77 0"/><polygon class="cls-1" points="110.83 0 150.62 94.61 128.63 94.61 88.83 0 110.83 0"/><polygon class="cls-1" points="77.76 0 26.45 0 17.63 20.49 69.14 20.49 77.76 0"/><polyline class="cls-3" points="6.66 24.16 41.09 24.16 30.63 48.91 23.87 48.91"/><line class="cls-3" x1="1.33" y1="18.99" x2="11.98" y2="18.99"/><polygon class="cls-2" points="107.6 72.61 27.78 72.61 27.78 94.61 116.86 94.61 107.6 72.61"/><polyline class="cls-3" points="80.48 20 61.7 64.83 104.19 64.83"/><polyline class="cls-3" points="10.14 53.61 28.39 53.61 11.01 94.61 121.64 94.61"/><polyline class="cls-3" points="117.77 16.51 150.62 94.61 128.63 94.61"/><line class="cls-3" x1="134.2" y1="37.86" x2="149.09" y2="73.26"/><line class="cls-3" x1="75.55" y1="48.91" x2="68.8" y2="48.91"/><line class="cls-3" x1="66.65" y1="53.61" x2="84.9" y2="53.61"/></g></g></svg>